<?xml version="1.0" standalone="no"?>
<!DOCTYPE svg PUBLIC "-//W3C//DTD SVG 20010904//EN"
 "http://www.w3.org/TR/2001/REC-SVG-20010904/DTD/svg10.dtd">
<svg version="1.0" xmlns="http://www.w3.org/2000/svg"
 width="152.000000pt" height="152.000000pt" viewBox="0 0 152.000000 152.000000"
 preserveAspectRatio="xMidYMid meet">
<metadata>
Created by potrace 1.11, written by Peter Selinger 2001-2013
</metadata>
<g transform="translate(0.000000,152.000000) scale(0.100000,-0.100000)"
fill="#000000" stroke="none">
<path d="M542 1504 c-108 -23 -283 -105 -307 -144 -17 -27 28 -17 88 20 204
124 452 136 674 35 40 -18 87 -45 106 -59 19 -14 39 -26 45 -26 26 0 10 31
-31 58 -161 111 -386 156 -575 116z"/>
<path d="M530 1439 c-183 -47 -320 -146 -421 -302 -36 -55 -38 -62 -22 -71 13
-7 20 -5 27 9 93 156 214 257 372 311 109 37 267 43 375 13 153 -42 293 -143
379 -272 23 -34 46 -62 51 -61 5 1 13 2 19 3 5 0 0 18 -12 39 -89 154 -243
276 -408 323 -25 7 -52 14 -60 17 -8 2 -62 5 -120 7 -80 3 -123 -1 -180 -16z"/>
<path d="M605 1363 c-62 -12 -125 -35 -125 -46 0 -7 -29 -27 -63 -45 -35 -18
-77 -47 -93 -64 l-29 -32 38 32 c35 30 127 82 144 82 4 0 -24 -18 -62 -41 -39
-22 -83 -52 -99 -67 -16 -15 -26 -22 -23 -16 12 21 -30 22 -47 2 -109 -126
-156 -259 -153 -425 2 -96 4 -103 33 -107 19 -3 36 -48 28 -71 -10 -25 105
-215 129 -215 6 0 0 12 -14 27 -14 16 -31 37 -39 48 -8 11 15 -11 50 -49 44
-47 64 -77 63 -92 -1 -18 11 -29 67 -58 93 -49 194 -74 289 -71 156 5 229 31
222 77 0 4 7 4 16 1 10 -4 14 -2 10 4 -4 7 9 21 30 34 21 13 58 39 83 58 25
20 39 28 31 18 -13 -17 -12 -18 15 -11 16 4 39 18 52 33 62 73 142 256 125
290 -4 9 -8 50 -9 91 -1 41 -4 91 -7 111 -12 79 -65 197 -112 254 -9 11 -7 3
5 -18 12 -21 20 -40 17 -43 -3 -3 -8 4 -12 15 -3 12 -10 21 -15 21 -14 0 -21
32 -9 46 16 19 -2 45 -63 94 -65 52 -149 95 -225 116 -55 15 -204 25 -248 17z
m131 -109 c3 -22 -10 -29 -58 -31 -61 -2 -140 -20 -177 -39 -18 -10 -27 -10
-32 -2 -4 6 -14 8 -23 5 -9 -4 -16 -4 -16 -1 0 3 25 17 56 31 81 37 247 62
250 37z m51 0 c-3 -3 -12 -4 -19 -1 -8 3 -5 6 6 6 11 1 17 -2 13 -5z m108 -42
c-3 -3 -11 0 -18 7 -9 10 -8 11 6 5 10 -3 15 -9 12 -12z m40 -12 c3 -6 -1 -7
-9 -4 -18 7 -21 14 -7 14 6 0 13 -4 16 -10z m-42 -37 c26 -13 45 -28 42 -32
-2 -5 14 -26 38 -47 165 -149 196 -382 73 -564 -16 -25 -36 -51 -43 -59 -12
-11 -11 -16 3 -32 17 -18 16 -20 -2 -37 -28 -24 -51 -38 -112 -67 -76 -36
-144 -48 -232 -42 -86 6 -192 41 -184 61 3 7 -12 25 -33 40 -21 16 -59 51 -85
79 -41 45 -48 49 -63 37 -24 -20 -41 2 -72 91 -45 130 -36 272 25 397 28 58
119 165 156 184 12 5 6 -3 -13 -19 l-33 -28 20 -25 20 -25 30 22 c91 67 170
92 281 90 45 -1 81 1 81 6 0 11 49 -3 103 -30z m152 -46 c108 -106 156 -241
147 -415 -2 -31 -3 -32 -18 -17 -11 11 -17 39 -19 93 -2 42 -11 99 -20 126
-22 64 -86 165 -124 194 -19 15 -28 29 -24 39 4 10 -3 23 -18 35 l-24 19 23
-11 c13 -6 47 -35 77 -63z m212 -439 c-3 -8 -6 -5 -6 6 -1 11 2 17 5 13 3 -3
4 -12 1 -19z m-1077 -153 c0 -5 -5 -3 -10 5 -5 8 -10 20 -10 25 0 6 5 3 10 -5
5 -8 10 -19 10 -25z m25 -45 c9 -16 13 -30 11 -30 -3 0 -12 14 -21 30 -9 17
-13 30 -11 30 3 0 12 -13 21 -30z m695 -180 c-8 -5 -19 -10 -25 -10 -5 0 -3 5
5 10 8 5 20 10 25 10 6 0 3 -5 -5 -10z"/>
<path d="M660 1122 c-100 -13 -230 -87 -218 -124 3 -7 -3 -21 -13 -32 -21 -22
-59 -100 -59 -120 0 -7 -8 -16 -19 -19 -16 -4 -18 -13 -16 -68 4 -85 11 -114
41 -170 120 -219 422 -256 585 -71 49 56 86 131 70 141 -15 10 -7 80 12 98 35
35 -31 202 -106 269 -68 62 -197 106 -277 96z m127 -65 c68 -17 144 -83 182
-158 27 -54 30 -69 28 -142 -2 -81 -12 -112 -63 -202 -9 -16 -20 -37 -24 -45
-4 -8 -36 -30 -73 -49 -56 -29 -76 -34 -135 -34 -136 -1 -254 71 -309 190 -27
58 -37 114 -23 123 6 4 13 26 16 51 22 165 158 284 314 275 36 -2 75 -6 87 -9z"/>
<path d="M618 943 c-62 -25 -44 -53 20 -32 131 45 246 -67 206 -202 -16 -54
-55 -91 -114 -107 -41 -11 -110 6 -142 35 -30 26 -60 99 -56 136 2 24 -1 33
-14 35 -18 4 -22 -11 -20 -67 4 -78 57 -144 119 -148 158 -12 176 -10 211 21
86 75 85 217 -2 294 -58 51 -138 65 -208 35z"/>
<path d="M641 872 c-42 -21 -69 -57 -73 -97 -4 -42 28 -48 34 -6 2 17 0 32 -6
35 -7 2 -5 10 5 21 24 25 121 31 144 9 9 -9 19 -13 22 -10 4 4 -3 13 -15 22
-12 8 -22 22 -22 30 0 20 -47 18 -89 -4z"/>
<path d="M779 825 c-4 -3 -4 -25 -2 -49 3 -24 0 -53 -7 -65 -10 -20 -9 -22 7
-19 27 5 41 70 22 109 -8 17 -17 28 -20 24z"/>
<path d="M610 685 c0 -18 34 -37 72 -40 18 -2 28 2 28 11 0 8 -3 13 -7 13 -25
-4 -54 3 -67 16 -18 19 -26 19 -26 0z"/>
<path d="M1348 1102 c-16 -3 -16 -6 2 -43 48 -94 74 -292 55 -417 -24 -163
-125 -335 -260 -445 -74 -60 -197 -120 -290 -142 -138 -33 -339 -15 -447 41
-25 13 -32 14 -39 2 -12 -19 13 -34 106 -65 69 -23 97 -26 210 -27 148 0 216
14 333 69 159 75 290 208 362 368 50 113 63 173 64 302 1 132 -4 165 -35 258
-28 83 -41 104 -61 99z"/>
<path d="M1355 776 c-2 -6 -6 -43 -9 -81 -15 -182 -115 -358 -268 -471 -56
-41 -173 -96 -233 -110 -48 -10 -226 -13 -275 -4 -30 5 -47 5 -52 -3 -8 -13
-77 11 -160 56 -41 22 -54 34 -47 43 6 8 2 17 -16 28 -13 9 -46 38 -73 66 -33
34 -52 46 -61 41 -15 -10 -10 -21 29 -64 56 -64 147 -123 275 -178 95 -40 292
-48 410 -15 287 81 490 329 512 627 5 67 4 76 -12 76 -9 0 -18 -5 -20 -11z"/>
<path d="M130 611 c0 -11 4 -22 9 -25 4 -3 6 6 3 19 -5 30 -12 33 -12 6z"/>
<path d="M290 343 c0 -5 13 -17 28 -27 l27 -19 -24 26 c-26 28 -31 32 -31 20z"/>
<path d="M1058 317 c-7 -8 -32 -26 -56 -41 -48 -30 -58 -46 -11 -19 36 21 97
72 87 73 -4 0 -13 -6 -20 -13z"/>
</g>
</svg>
