<?xml version="1.0" standalone="no"?>
<!DOCTYPE svg PUBLIC "-//W3C//DTD SVG 20010904//EN"
 "http://www.w3.org/TR/2001/REC-SVG-20010904/DTD/svg10.dtd">
<svg version="1.0" xmlns="http://www.w3.org/2000/svg"
 width="1500.000000pt" height="1500.000000pt" viewBox="0 0 1500.000000 1500.000000"
 preserveAspectRatio="xMidYMid meet">
<metadata>
Created by potrace 1.11, written by Peter Selinger 2001-2013
</metadata>
<g transform="translate(0.000000,1500.000000) scale(0.100000,-0.100000)"
fill="#000000" stroke="none">
<path d="M6897 14574 c-1 -1 -50 -4 -109 -8 -59 -3 -113 -8 -120 -11 -7 -2
-26 -6 -43 -9 -169 -26 -414 -114 -527 -190 -29 -20 -60 -36 -69 -36 -28 0
-139 -42 -264 -100 -81 -38 -241 -90 -277 -90 -14 0 -40 -11 -56 -25 -39 -33
-91 -54 -120 -49 -20 4 -22 1 -16 -18 3 -13 8 -24 9 -26 2 -3 89 29 130 48 11
5 59 26 106 48 48 22 106 42 130 45 24 3 80 22 124 42 230 106 578 224 775
264 30 6 66 14 80 16 14 3 41 8 60 11 19 3 60 9 90 14 109 17 258 28 505 36
105 3 206 7 225 9 211 19 196 19 212 -3 13 -19 27 -22 141 -26 69 -2 131 -7
136 -10 26 -17 180 -22 409 -14 107 4 140 1 255 -24 73 -15 179 -42 237 -58
58 -17 163 -47 235 -67 71 -20 149 -49 173 -64 24 -15 97 -46 161 -69 125 -44
192 -77 199 -98 6 -18 -38 -6 -108 28 -99 49 -156 49 -65 1 25 -13 44 -25 43
-26 -2 -1 -57 -5 -123 -9 -66 -3 -149 -10 -185 -15 -180 -27 -363 -32 -462
-12 -185 37 -297 48 -485 49 -100 0 -186 3 -191 6 -8 5 -117 19 -227 30 -27 3
-86 9 -130 13 -164 16 -836 7 -915 -12 -8 -2 -40 -7 -70 -10 -141 -15 -264
-33 -380 -55 -58 -11 -117 -21 -131 -24 -15 -2 -109 -25 -210 -50 -216 -53
-473 -135 -686 -217 -84 -33 -159 -59 -167 -59 -54 0 -304 -90 -471 -170 -55
-27 -118 -51 -140 -55 -174 -28 -459 -178 -795 -417 -88 -62 -255 -166 -295
-183 -19 -7 -39 -24 -46 -37 -26 -51 -86 -112 -168 -173 -47 -35 -97 -72 -111
-83 -40 -29 -172 -107 -209 -122 -21 -9 -38 -25 -47 -46 -21 -49 -56 -86 -164
-168 -87 -67 -99 -73 -89 -49 l10 28 -35 -34 c-20 -19 -36 -41 -36 -48 0 -16
-95 -63 -127 -63 -14 0 -38 -21 -72 -63 -28 -35 -58 -70 -67 -78 -15 -12 -16
-11 -9 21 10 46 84 133 152 178 30 19 49 38 44 41 -15 10 0 26 41 45 20 10 47
33 59 51 25 36 74 70 88 60 5 -3 20 5 33 18 65 64 101 107 95 113 -8 8 -166
-112 -326 -245 -167 -140 -439 -413 -532 -536 -13 -16 -26 -32 -30 -35 -3 -3
-54 -69 -112 -147 -209 -279 -411 -600 -577 -918 -28 -54 -68 -120 -89 -145
-71 -87 -108 -156 -154 -285 -74 -209 -90 -298 -64 -358 11 -27 16 -19 91 169
75 188 184 425 262 564 19 36 49 90 66 120 38 68 80 114 137 151 39 25 91 39
91 24 0 -4 -16 -34 -83 -155 -17 -30 -79 -139 -139 -242 -59 -102 -108 -190
-108 -194 0 -4 -6 -15 -13 -23 -39 -47 -180 -382 -202 -480 -12 -53 -188 -535
-225 -616 -22 -48 -112 -347 -125 -413 -2 -11 -13 -62 -24 -113 -22 -105 -23
-106 -51 -278 -11 -69 -18 -126 -16 -129 4 -3 10 18 21 78 3 14 28 113 55 220
28 107 52 204 55 216 34 148 116 388 234 684 78 195 146 364 151 375 5 11 28
65 50 120 98 234 300 615 327 615 20 0 67 51 104 114 26 43 38 55 52 50 31
-10 119 63 153 129 14 25 13 27 -6 27 -17 0 -19 3 -11 18 11 21 96 85 116 88
22 3 19 -5 -19 -63 -19 -29 -38 -58 -42 -65 -11 -18 46 20 73 48 19 21 73 44
73 31 0 -2 -26 -51 -58 -108 -64 -115 -130 -249 -187 -379 -21 -47 -45 -103
-55 -125 -10 -22 -56 -132 -103 -245 -123 -295 -163 -379 -195 -404 -71 -55
-112 -100 -102 -110 7 -7 28 8 70 49 42 42 60 54 60 42 0 -10 -18 -87 -39
-170 -22 -84 -43 -179 -46 -212 -6 -48 -13 -65 -35 -86 -15 -14 -31 -37 -35
-50 -3 -13 -19 -64 -35 -114 -56 -177 -96 -373 -115 -560 -3 -33 -8 -80 -10
-105 -6 -58 -13 -136 -20 -230 -3 -41 -8 -95 -10 -120 -43 -466 -52 -1036 -20
-1290 2 -19 7 -57 11 -85 3 -27 9 -70 14 -94 8 -47 4 -71 -12 -71 -11 0 -2
-118 17 -245 4 -22 9 -53 11 -70 3 -16 11 -66 19 -110 8 -44 17 -98 20 -120 4
-22 8 -47 10 -55 2 -8 6 -28 9 -45 3 -16 10 -61 17 -100 14 -91 21 -283 10
-321 -4 -16 -4 -42 1 -59 16 -55 38 -180 38 -213 0 -18 15 -63 34 -100 19 -37
37 -85 40 -107 4 -22 33 -105 65 -185 51 -128 68 -174 77 -216 33 -159 50
-213 100 -322 19 -40 34 -75 34 -77 0 -30 280 -386 387 -491 62 -62 112 -90
98 -56 -4 9 -9 33 -12 53 -6 41 -16 54 -123 154 -171 161 -245 268 -300 437
-23 68 -50 140 -61 161 -11 20 -18 45 -15 55 4 11 -13 59 -40 118 -41 87 -114
289 -128 356 -3 13 -12 52 -20 88 -8 36 -17 83 -21 105 -19 126 -34 238 -40
295 -3 36 -8 81 -10 100 -2 19 -7 62 -10 95 -16 158 -49 386 -71 485 -10 45
-11 187 -1 269 8 68 41 236 56 286 9 28 9 29 11 5 2 -55 13 -111 46 -243 20
-75 37 -147 39 -160 13 -68 32 -131 60 -202 18 -44 90 -253 159 -465 222 -674
320 -914 489 -1203 30 -51 75 -134 101 -186 26 -52 67 -126 92 -163 24 -38 44
-71 44 -73 0 -12 143 -205 218 -295 60 -70 273 -310 332 -373 25 -26 61 -77
80 -112 36 -67 124 -178 220 -277 42 -43 61 -56 76 -52 16 4 37 -12 98 -78 63
-69 87 -105 137 -208 33 -69 68 -140 77 -157 30 -60 96 -126 177 -178 44 -29
130 -93 192 -141 105 -84 269 -178 378 -218 98 -35 296 -121 490 -211 388
-181 629 -276 925 -365 58 -17 177 -55 265 -85 150 -50 295 -85 410 -101 28
-3 57 -8 67 -9 9 -2 38 -6 65 -10 26 -4 60 -9 74 -11 14 -2 52 -6 85 -9 32 -3
75 -8 94 -11 37 -6 58 -8 160 -19 36 -4 99 -13 140 -20 72 -12 153 -12 360 -1
52 4 167 8 255 11 88 3 183 7 210 10 107 11 142 15 200 25 33 6 76 13 95 16
42 7 209 60 229 73 7 5 27 4 46 -2 28 -8 57 -1 221 53 197 65 242 84 309 130
22 16 64 33 92 39 62 13 515 239 574 287 13 11 151 78 244 119 112 50 364 176
470 235 66 37 138 78 160 90 67 38 304 190 420 270 99 69 125 81 255 124 80
26 192 67 250 91 58 23 148 55 200 70 217 63 361 128 498 222 117 81 170 132
215 207 52 87 117 219 117 238 0 8 4 18 9 24 13 14 67 188 86 278 9 44 17 82
19 85 2 3 7 29 10 56 4 28 10 66 13 85 3 19 6 44 7 55 2 11 13 46 25 79 23 63
32 132 21 180 -8 39 8 79 93 228 176 309 329 656 450 1019 55 162 113 359 132
444 3 11 16 67 29 125 14 58 28 119 30 135 3 17 20 68 37 115 17 47 32 92 34
100 2 8 11 44 20 80 10 36 19 79 22 95 2 17 8 55 13 85 5 30 12 87 15 125 8
103 13 130 31 174 12 30 13 44 5 60 -8 13 -9 49 -4 103 10 121 8 164 -6 182
-12 15 -15 15 -25 1 -8 -12 -12 35 -14 187 -1 112 -4 224 -6 251 l-4 47 42 -1
c57 -3 80 12 95 63 7 24 22 61 32 83 36 79 57 141 65 195 4 30 9 58 10 63 1 4
2 14 3 23 0 8 6 12 11 9 16 -10 39 14 35 35 -5 25 -14 96 -20 152 -2 26 -1 58
4 70 9 22 9 22 15 -7 27 -118 40 -165 60 -210 13 -27 34 -82 46 -120 52 -163
92 -213 201 -255 39 -15 79 -41 104 -65 l41 -41 0 -77 c-1 -86 8 -101 56 -91
23 5 31 0 47 -26 l19 -32 13 23 c7 13 14 59 15 102 3 60 9 87 28 120 39 68 52
126 71 337 12 133 8 285 -10 350 -2 8 -6 40 -10 70 -3 30 -7 66 -9 80 -2 14
-7 47 -11 73 -4 27 -8 57 -10 67 -2 11 -6 45 -10 77 -3 32 -8 65 -10 73 -2 8
-6 38 -10 65 -17 148 -46 310 -95 535 -21 93 -83 294 -118 378 -27 67 -36 103
-37 153 -2 70 -31 147 -96 252 l-30 49 21 35 c22 38 20 77 -5 102 -13 13 -15
13 -16 1 -1 -23 -7 -51 -12 -56 -8 -8 -129 196 -163 273 -18 43 -60 114 -92
158 -32 44 -94 132 -137 195 -86 126 -158 222 -216 287 -20 24 -39 57 -43 73
-8 43 -73 173 -124 251 -35 54 -48 66 -71 67 -62 2 -89 23 -259 216 -19 21
-83 99 -144 174 -131 163 -171 211 -254 303 -40 45 -128 125 -184 169 -25 19
-92 82 -150 139 -112 111 -215 203 -295 265 -27 22 -95 85 -151 140 -132 133
-171 168 -284 256 -249 195 -538 365 -875 515 -101 45 -385 143 -461 159 -18
4 -49 22 -70 39 -88 74 -144 100 -357 169 -89 28 -170 53 -180 55 -19 3 -299
105 -352 128 -35 15 -237 86 -310 109 -144 44 -399 83 -515 77 -112 -5 -167
-5 -240 4 -59 6 -1225 15 -1233 9z m3533 -951 c58 -13 133 -37 167 -54 34 -16
83 -32 110 -34 125 -12 190 -26 308 -68 138 -48 347 -174 510 -307 101 -83
118 -99 228 -222 43 -47 146 -145 230 -217 138 -118 217 -199 217 -224 0 -15
-76 1 -123 25 -23 11 -120 72 -216 136 -180 119 -297 185 -343 196 -35 8 -83
49 -97 83 -6 16 -42 49 -79 76 -37 26 -81 59 -98 75 -161 141 -228 182 -584
360 -256 127 -330 167 -385 210 l-30 23 40 -17 c22 -9 87 -28 145 -41z m-433
-47 c126 -43 204 -77 408 -177 112 -55 167 -84 428 -224 101 -55 297 -152 390
-194 57 -26 317 -217 362 -266 6 -6 24 -21 40 -34 17 -12 73 -62 125 -111 52
-48 122 -112 155 -141 124 -111 370 -357 441 -441 127 -151 208 -286 230 -379
11 -50 12 -89 2 -95 -4 -3 -8 -1 -8 4 0 5 -24 37 -54 70 -29 33 -71 95 -92
138 -46 91 -129 185 -224 252 -36 25 -93 70 -127 100 -45 39 -72 55 -95 56
-25 1 -72 31 -193 122 -347 260 -675 474 -1090 709 -266 151 -730 384 -1018
511 -132 58 -155 71 -141 81 15 11 58 11 249 -1 43 -3 83 13 90 35 4 10 10 19
15 19 5 0 53 -15 107 -34z m-2412 -59 c17 -3 59 -9 95 -12 36 -4 74 -9 85 -10
11 -2 38 -6 61 -10 148 -22 427 -85 442 -100 6 -6 -82 1 -138 10 -14 3 -56 8
-95 11 -38 3 -86 8 -105 9 -197 18 -610 23 -800 10 -52 -3 -147 -8 -210 -10
-102 -4 -238 -13 -280 -19 -8 -2 -40 -6 -70 -11 -30 -4 -72 -14 -94 -21 -22
-8 -53 -17 -70 -19 -17 -3 -65 -12 -106 -20 -41 -9 -86 -17 -100 -20 -14 -3
-38 -7 -55 -10 -160 -32 -544 -141 -750 -215 -76 -27 -140 -48 -143 -46 -5 6
13 20 163 127 91 65 157 104 190 113 67 19 138 39 150 42 6 1 62 16 126 32
160 42 433 96 614 122 44 6 92 13 106 16 14 2 52 6 85 9 32 3 70 7 84 10 14 2
66 7 115 11 50 3 91 7 93 9 6 5 575 -3 607 -8z m745 -636 c71 -20 128 -26 242
-24 178 3 323 -23 753 -137 154 -40 351 -129 549 -248 90 -54 216 -149 216
-163 0 -8 177 -126 314 -210 51 -31 107 -74 130 -102 29 -33 63 -58 115 -83
56 -27 96 -57 175 -133 128 -123 148 -142 451 -406 310 -270 325 -284 325
-295 0 -5 20 -32 45 -60 25 -28 45 -55 45 -60 0 -6 34 -45 76 -87 235 -240
359 -382 501 -573 136 -184 183 -260 273 -440 64 -128 116 -257 150 -370 12
-41 25 -86 30 -100 9 -33 7 -52 -19 -137 -11 -40 -30 -104 -41 -142 -12 -41
-35 -89 -56 -116 -34 -45 -35 -49 -31 -116 4 -62 2 -72 -19 -95 -13 -14 -24
-33 -25 -42 -1 -41 3 -184 6 -201 2 -9 6 -55 10 -102 4 -46 9 -93 11 -104 2
-10 6 -36 9 -55 7 -46 38 -154 57 -201 14 -33 102 -109 126 -109 5 0 15 -7 22
-15 29 -35 93 -8 132 55 9 16 26 26 42 28 15 1 57 14 92 28 36 14 67 24 69 22
2 -2 7 -36 10 -76 3 -40 8 -80 10 -90 1 -9 6 -64 10 -122 4 -58 9 -121 12
-140 5 -50 4 -607 -2 -655 -2 -22 -7 -87 -10 -145 -3 -58 -8 -112 -10 -120 -2
-8 -7 -44 -10 -80 -7 -80 -19 -162 -52 -345 -14 -77 -27 -153 -30 -170 -3 -16
-25 -111 -50 -209 -155 -622 -438 -1256 -798 -1786 -148 -219 -329 -454 -239
-310 26 41 67 116 91 165 24 50 49 98 54 108 6 11 9 21 6 23 -11 11 -63 -47
-123 -139 -130 -198 -344 -447 -625 -727 -170 -170 -183 -182 -504 -455 -121
-103 -224 -193 -230 -199 -22 -24 -143 -124 -185 -152 -153 -103 -467 -267
-735 -384 -202 -88 -259 -106 -281 -89 -5 4 -38 -1 -73 -11 -35 -11 -77 -22
-94 -25 -18 -3 -43 -7 -57 -10 -32 -5 -146 -16 -225 -20 -83 -5 -192 -29 -265
-58 -34 -14 -56 -19 -50 -12 20 24 10 24 -125 11 -170 -17 -303 -39 -364 -61
-41 -14 -310 -14 -726 0 -121 5 -278 8 -350 7 -77 0 -159 5 -200 14 -96 19
-120 23 -195 30 -36 3 -83 10 -105 16 -22 5 -47 12 -55 13 -27 6 -122 32 -290
80 -91 26 -217 60 -280 77 -63 16 -140 36 -170 44 -30 9 -98 26 -150 40 -52
14 -117 31 -145 39 -27 8 -106 31 -175 50 -69 20 -246 77 -394 126 -219 74
-286 101 -359 145 -50 30 -94 54 -99 54 -5 0 -33 11 -61 23 -29 13 -72 32 -97
43 -189 80 -284 139 -470 292 -274 226 -592 540 -721 713 -133 178 -176 243
-172 260 2 9 -10 41 -28 70 -73 125 -214 420 -268 564 -13 33 -27 69 -32 80
-4 11 -35 92 -69 180 -105 275 -141 366 -200 500 -32 72 -61 150 -65 175 -4
25 -25 77 -46 115 -73 135 -140 313 -165 445 -13 69 -26 134 -29 145 -2 11 -8
43 -14 70 -32 160 -105 447 -133 525 -13 37 -21 90 -23 159 -4 109 -10 172
-23 256 -12 78 -3 540 12 622 2 10 7 52 10 94 4 42 8 87 11 100 2 13 6 46 10
72 4 27 8 56 9 65 2 10 7 40 11 67 9 68 53 294 59 303 2 4 7 25 10 47 27 172
204 708 321 970 14 33 34 76 42 95 44 98 178 360 244 475 41 71 81 148 89 170
28 75 88 180 127 225 46 52 325 413 490 636 87 116 127 161 173 193 33 23 65
47 72 54 48 46 245 213 301 255 38 28 119 79 180 113 62 34 132 73 157 87 25
14 68 47 95 72 93 86 582 368 795 458 186 78 336 123 514 152 71 12 138 23
149 26 11 2 45 6 76 10 31 3 63 7 71 9 8 1 40 6 70 10 30 3 102 19 160 35 58
15 119 31 135 34 17 4 39 8 50 11 11 3 87 18 169 35 149 29 168 33 239 46 21
4 37 12 37 20 0 8 8 14 18 15 20 1 47 5 117 19 28 6 59 12 70 14 40 7 91 16
115 21 67 13 114 17 215 20 61 1 144 10 185 20 41 9 86 19 100 21 14 2 48 9
75 14 84 16 117 20 190 27 39 3 72 8 75 10 9 8 395 -6 430 -16z m-4565 -679
c-6 -5 -66 -53 -134 -108 -68 -54 -167 -136 -220 -183 -126 -109 -465 -451
-564 -567 -65 -77 -81 -90 -101 -87 -29 6 -59 -33 -54 -70 2 -17 -19 -52 -75
-125 -78 -102 -110 -131 -122 -112 -16 26 136 267 268 425 63 75 224 235 295
294 35 28 98 87 140 129 42 43 125 114 185 157 59 43 107 80 107 82 0 2 -10 1
-22 -3 -15 -4 -9 5 20 28 59 47 323 181 277 140z m7630 -145 c36 -36 37 -38
10 -22 -16 10 -39 25 -50 35 -11 10 -30 23 -42 29 -13 6 -23 16 -23 22 0 16
63 -22 105 -64z m219 -146 c38 -24 77 -50 85 -57 87 -71 312 -238 372 -276 72
-46 81 -57 228 -262 150 -210 164 -229 224 -293 21 -23 30 -44 33 -75 2 -24 5
-53 8 -65 2 -12 -1 -27 -9 -33 -10 -8 -23 7 -60 71 -125 216 -266 409 -420
575 -70 76 -149 144 -293 253 -108 82 -213 166 -232 186 -39 42 -36 41 64 -24z
m819 -519 c22 -20 22 -32 -2 -32 -19 0 -55 43 -44 54 7 6 20 0 46 -22z m94
-142 c29 -34 103 -145 103 -155 0 -31 -90 57 -152 148 -16 22 -28 49 -28 59 0
19 1 19 23 1 13 -10 37 -34 54 -53z m197 -289 c20 -32 36 -62 36 -65 0 -4 -13
0 -28 9 -18 11 -34 34 -45 65 -29 82 -16 79 37 -9z m-10244 -78 c0 -7 -19 -32
-42 -55 l-43 -43 -3 27 c-3 29 17 75 45 103 16 16 17 16 30 -1 7 -10 13 -24
13 -31z m10400 -376 c123 -263 148 -322 138 -328 -18 -12 -38 2 -44 30 -5 25
-33 89 -120 282 -24 52 -47 111 -50 130 -6 34 -6 34 11 11 9 -12 38 -68 65
-125z m-10681 -928 c-149 -348 -340 -1066 -404 -1524 -8 -60 -18 -130 -22
-155 -3 -25 -8 -148 -9 -275 -2 -126 -6 -246 -8 -265 -3 -19 -8 -82 -12 -140
-4 -58 -9 -107 -11 -110 -6 -6 5 577 11 625 2 17 7 66 10 110 9 109 15 166 21
192 3 12 8 46 11 75 8 80 36 255 55 343 6 28 13 64 15 80 15 96 121 481 175
632 17 48 42 118 54 155 32 91 146 360 151 355 2 -2 -14 -46 -37 -98z m11297
17 c71 -86 141 -273 139 -373 -1 -61 -6 -68 -33 -54 -21 11 -41 61 -97 246
-20 66 -48 142 -61 168 -13 27 -24 52 -24 57 0 19 44 -6 76 -44z m128 -1396
c4 -36 1 -49 -16 -67 -26 -28 -44 -29 -58 -4 -13 25 -13 34 1 26 7 -5 9 3 6
24 -7 40 9 31 18 -10 10 -45 26 -22 28 39 2 60 14 56 21 -8z m-11874 -1119 c0
-6 -4 -12 -8 -15 -5 -3 -9 1 -9 9 0 8 4 15 9 15 4 0 8 -4 8 -9z m4 -97 c4 -37
14 -83 22 -103 9 -20 17 -66 19 -103 3 -60 12 -147 20 -187 1 -9 6 -36 9 -61
12 -78 36 -169 101 -380 60 -197 69 -228 81 -295 19 -106 94 -334 186 -565 39
-96 74 -186 78 -200 5 -14 27 -72 50 -130 22 -58 47 -123 55 -145 19 -53 55
-208 51 -213 -8 -8 -226 448 -286 597 -88 220 -173 484 -235 726 -29 116 -55
224 -58 240 -9 49 -36 198 -42 225 -3 14 -7 49 -11 78 -3 29 -7 61 -9 70 -2
10 -6 45 -10 77 -4 33 -8 71 -10 85 -6 38 -14 125 -20 225 -3 50 -8 98 -11
108 -3 9 -1 17 4 17 5 0 12 -30 16 -66z m10749 -3234 c-33 -69 -39 -94 -48
-205 -11 -140 -17 -157 -108 -295 -100 -153 -162 -223 -222 -250 -68 -30 -259
-98 -320 -115 -27 -7 -97 -27 -154 -43 l-104 -30 144 142 c306 300 573 616
779 922 l55 81 5 -71 c5 -65 2 -77 -27 -136z m-3683 -1899 c0 -11 -25 -21 -56
-21 -28 0 -32 16 -6 23 31 8 62 7 62 -2z"/>
<path d="M7995 12553 c-48 -5 -156 -23 -208 -35 l-47 -10 17 -30 18 -30 150 7
c229 10 255 9 330 -13 39 -11 94 -22 123 -25 47 -5 52 -3 52 15 0 31 -65 86
-123 103 -49 15 -243 26 -312 18z"/>
<path d="M5625 8239 c-27 -5 -60 -11 -72 -14 l-22 -5 0 -680 -1 -680 85 0 84
0 0 379 c-1 209 2 384 5 389 7 11 57 21 141 29 123 11 201 -37 226 -139 17
-73 17 -69 18 -380 l1 -278 83 0 82 0 -1 307 c-1 206 -5 328 -14 368 -23 109
-78 193 -153 231 -81 43 -210 55 -317 30 -35 -8 -66 -14 -68 -12 -2 2 -3 108
-3 235 0 173 -3 231 -12 230 -7 -1 -34 -5 -62 -10z"/>
<path d="M2469 8063 c-2 -21 -3 -53 -1 -70 l3 -33 170 0 169 0 0 -550 0 -550
80 0 80 0 0 38 c1 20 1 268 1 550 l1 512 169 0 169 0 0 70 0 70 -419 0 -419 0
-3 -37z"/>
<path d="M10542 8093 c1 -7 -4 -68 -17 -176 -5 -45 -24 -238 -30 -312 -2 -27
-7 -93 -10 -145 -3 -52 -8 -120 -10 -150 -2 -30 -7 -125 -10 -210 -4 -85 -8
-174 -10 -198 l-4 -43 82 3 82 3 1 75 c1 41 5 237 9 435 4 198 8 390 9 428 0
37 3 67 6 67 4 0 17 -35 30 -77 13 -43 52 -163 86 -268 l62 -190 75 -3 c74 -3
75 -3 81 25 6 22 77 248 149 473 17 52 22 54 23 7 0 -23 4 -199 9 -392 4 -192
8 -402 9 -465 l1 -115 81 -3 81 -3 -2 43 c-2 24 -6 111 -9 193 -4 83 -9 179
-11 215 -2 36 -7 119 -11 185 -3 66 -8 138 -9 160 -1 22 -5 69 -9 105 -13 122
-29 265 -31 285 -2 11 -4 28 -4 38 -1 15 -12 17 -80 17 l-78 0 -16 -52 c-8
-29 -41 -134 -72 -233 -31 -99 -66 -213 -78 -253 -13 -46 -23 -68 -28 -60 -4
8 -44 131 -89 273 -45 143 -86 275 -91 293 l-11 32 -79 0 c-43 0 -78 -3 -77
-7z"/>
<path d="M3838 7805 c-2 -2 -19 -7 -37 -10 -107 -19 -226 -115 -278 -226 -70
-149 -67 -364 7 -509 32 -62 115 -139 186 -170 78 -35 143 -48 249 -48 109 0
283 36 271 57 -2 3 -7 31 -11 61 -4 30 -9 58 -11 61 -1 3 -34 -2 -71 -12 -96
-24 -231 -23 -310 3 -105 35 -174 119 -189 232 l-7 46 333 0 333 0 -6 103
c-12 218 -88 340 -246 394 -55 18 -200 30 -213 18z m174 -159 c63 -30 117
-119 118 -193 l0 -33 -245 0 c-150 0 -245 4 -245 10 0 5 9 34 21 65 24 64 84
129 143 155 52 23 156 21 208 -4z"/>
<path d="M4870 7799 c-124 -23 -238 -93 -301 -186 -17 -24 -41 -75 -54 -113
-20 -59 -23 -85 -21 -187 3 -138 6 -152 46 -231 59 -115 172 -197 310 -226
119 -25 318 -14 413 23 31 12 30 10 11 114 -6 32 -10 37 -28 31 -107 -34 -265
-43 -355 -19 -154 40 -231 148 -231 321 0 156 70 264 202 312 65 23 225 25
309 2 l68 -18 10 32 c6 17 14 50 19 73 l9 41 -41 11 c-109 30 -267 38 -366 20z"/>
<path d="M8783 7799 c-60 -11 -133 -45 -167 -77 -16 -15 -39 -49 -52 -77 -41
-86 -28 -177 34 -242 51 -54 108 -85 242 -133 63 -22 134 -50 157 -61 88 -42
118 -119 70 -174 -59 -69 -285 -71 -460 -5 -28 11 -52 19 -53 17 -1 -1 -8 -34
-16 -74 l-15 -71 41 -16 c92 -34 135 -40 286 -40 126 0 166 3 214 19 121 39
186 117 191 229 3 72 -10 107 -59 159 -49 53 -109 86 -248 138 -140 53 -183
73 -212 98 -52 45 -39 118 27 154 37 19 57 22 162 22 110 -1 169 -10 248 -41
7 -2 14 1 14 8 0 17 12 85 19 114 5 20 1 24 -38 34 -23 7 -54 14 -68 16 -52 9
-277 11 -317 3z"/>
<path d="M11838 7805 c-2 -2 -19 -7 -37 -10 -88 -15 -200 -95 -254 -181 -51
-82 -70 -151 -73 -272 -2 -95 1 -124 21 -189 43 -140 128 -231 264 -281 109
-41 296 -39 432 4 l46 14 -12 68 c-8 50 -15 66 -26 63 -130 -33 -268 -39 -349
-15 -120 35 -190 116 -206 235 l-7 49 333 0 333 0 -6 105 c-13 219 -88 338
-244 391 -57 19 -202 32 -215 19z m136 -146 c83 -23 142 -96 153 -188 l6 -51
-247 0 c-135 0 -246 4 -246 9 0 5 7 28 15 52 50 142 183 216 319 178z"/>
<path d="M7450 7784 c0 -3 29 -93 64 -198 74 -221 137 -381 228 -581 l63 -140
80 0 79 0 56 120 c92 201 107 235 164 380 46 117 146 406 146 421 0 3 -39 3
-87 2 l-87 -3 -19 -65 c-49 -167 -213 -607 -241 -645 -10 -14 -15 -8 -35 42
-13 32 -29 72 -37 88 -33 79 -157 445 -184 546 l-11 39 -89 0 c-50 0 -90 -3
-90 -6z"/>
<path d="M9250 14481 c0 -5 17 -17 38 -26 20 -10 45 -22 55 -27 11 -5 17 -5
17 1 0 6 -22 22 -50 36 -54 28 -60 29 -60 16z"/>
<path d="M5145 13975 c-27 -7 -108 -39 -179 -69 -71 -31 -134 -56 -139 -56
-14 0 -100 -51 -95 -56 3 -2 42 12 89 32 46 19 120 49 164 65 44 17 89 34 100
39 11 5 48 19 83 31 34 12 62 23 62 25 0 7 -35 3 -85 -11z"/>
<path d="M4610 13754 c-70 -24 -222 -99 -250 -122 l-25 -22 45 22 c25 11 99
45 165 75 66 30 122 56 124 59 8 8 -14 3 -59 -12z"/>
<path d="M4173 13576 c-21 -18 -47 -38 -58 -44 -11 -6 -21 -20 -22 -31 -1 -12
-1 -21 0 -21 1 0 33 29 71 65 70 66 77 93 9 31z"/>
<path d="M3949 13432 c-13 -10 -44 -31 -69 -45 -25 -15 -39 -27 -32 -27 20 0
113 42 107 48 -3 3 2 14 12 24 21 23 12 23 -18 0z"/>
<path d="M2693 12368 c-23 -30 -24 -41 -2 -21 12 12 20 25 17 28 -3 3 -10 0
-15 -7z"/>
<path d="M12802 12222 c-9 -7 -8 -13 8 -27 11 -10 20 -25 20 -33 0 -7 24 -35
52 -60 137 -122 317 -318 450 -490 54 -70 103 -133 109 -140 61 -74 247 -374
339 -547 29 -55 64 -108 77 -119 39 -30 71 -90 94 -171 11 -42 27 -93 36 -113
14 -34 16 -35 29 -17 17 23 17 25 -2 100 -48 184 -47 178 -30 206 16 26 14 29
-117 220 -213 310 -399 561 -556 748 -181 217 -374 419 -418 437 -36 16 -72
18 -91 6z"/>
<path d="M1597 11486 c-19 -28 -22 -56 -7 -56 15 0 40 55 31 69 -6 9 -13 5
-24 -13z"/>
<path d="M587 8073 c-3 -5 -8 -37 -11 -73 -4 -36 -9 -74 -11 -85 -3 -11 -7
-42 -10 -68 -2 -26 -11 -74 -19 -105 -15 -57 -20 -105 -16 -152 l2 -25 8 26
c4 15 11 51 14 80 4 30 11 81 16 114 5 33 11 83 15 110 3 28 9 80 13 118 8 65
8 75 -1 60z"/>
<path d="M449 7443 c-15 -18 -16 -177 -2 -328 4 -44 6 -125 4 -180 -10 -256
-3 -556 13 -606 2 -8 7 -39 10 -69 7 -66 15 -116 22 -150 3 -14 8 -36 10 -50
2 -14 7 -36 10 -50 3 -14 8 -36 11 -50 29 -162 163 -602 288 -945 26 -71 74
-204 106 -294 33 -92 72 -179 88 -200 46 -60 77 -119 139 -271 75 -184 150
-338 233 -479 78 -134 213 -292 279 -326 l32 -16 -25 43 c-187 328 -424 770
-485 908 -164 369 -322 826 -458 1320 -20 74 -60 216 -89 315 -49 165 -67 238
-79 320 -21 140 -25 180 -41 505 -2 58 -8 150 -12 205 -7 108 -7 117 0 275 4
86 2 108 -11 123 -19 21 -26 21 -43 0z"/>
<path d="M14015 7280 c-7 -31 9 -65 26 -54 13 8 6 84 -8 84 -6 0 -14 -14 -18
-30z"/>
<path d="M1404 4216 c-3 -8 36 -94 86 -193 51 -98 121 -248 157 -333 35 -85
73 -168 82 -185 10 -16 31 -52 46 -80 254 -462 412 -693 605 -880 120 -116
120 -116 178 -183 54 -63 243 -230 367 -323 39 -30 111 -88 162 -131 94 -80
182 -138 208 -138 35 0 7 35 -122 150 -328 292 -665 641 -891 924 -248 309
-352 473 -552 861 -62 121 -122 233 -134 250 -11 16 -21 45 -22 65 -1 37 -41
124 -82 178 -26 34 -78 45 -88 18z"/>
<path d="M13125 2894 c-45 -30 -69 -53 -63 -59 5 -5 118 73 118 81 0 10 -20 2
-55 -22z"/>
<path d="M2945 2350 c-10 -17 32 -69 144 -178 88 -87 120 -110 188 -142 45
-21 97 -41 115 -45 l33 -7 -34 24 c-59 41 -150 115 -224 181 -77 69 -185 159
-204 170 -6 4 -14 3 -18 -3z"/>
<path d="M3361 1726 c2 -2 48 -34 101 -70 102 -69 142 -86 86 -37 -60 52 -151
111 -171 111 -11 0 -18 -2 -16 -4z"/>
<path d="M10823 1384 c-26 -25 -39 -41 -28 -36 21 10 85 68 85 77 0 10 -10 4
-57 -41z"/>
<path d="M10547 1203 c-49 -24 -86 -47 -84 -50 7 -6 146 63 167 83 20 19 17
18 -83 -33z"/>
<path d="M10142 975 c-112 -56 -210 -109 -219 -118 -9 -8 79 32 194 89 116 57
216 111 223 119 7 8 11 14 9 14 -2 -1 -95 -48 -207 -104z"/>
<path d="M10138 1063 c-37 -9 -18 -26 23 -20 54 7 76 27 29 26 -19 -1 -43 -3
-52 -6z"/>
<path d="M9977 961 c-17 -6 -18 -8 -3 -20 13 -11 22 -11 42 -2 44 20 8 41 -39
22z"/>
<path d="M9800 890 c-30 -16 -118 -51 -195 -80 -77 -28 -147 -54 -155 -57 -8
-3 -19 -7 -25 -9 -32 -8 -68 -27 -58 -31 7 -2 22 1 33 7 12 6 24 9 27 6 13
-13 -76 -39 -137 -41 -41 -1 -93 -11 -142 -28 -43 -15 -176 -51 -295 -82 -120
-30 -256 -68 -303 -84 -62 -21 -103 -29 -151 -28 -54 0 -78 -5 -130 -30 -72
-35 -112 -62 -90 -63 36 -1 312 59 425 92 38 11 76 21 85 23 75 16 348 89 356
95 18 14 118 39 185 45 103 10 200 34 194 49 -5 14 4 19 147 75 57 23 110 45
117 50 8 5 29 3 50 -4 31 -11 40 -10 74 7 46 24 49 31 8 16 -24 -8 -38 -7 -61
5 l-31 14 29 8 c15 5 39 9 53 10 14 2 46 12 70 23 41 19 42 20 12 15 -27 -5
-31 -3 -26 11 8 21 -1 19 -66 -14z"/>
</g>
</svg>
